<?xml version="1.0" encoding="iso-8859-1"?>
<!-- Generator: Adobe Illustrator 19.0.0, SVG Export Plug-In . SVG Version: 6.00 Build 0)  -->
<svg fill="#fff" version="1.1" id="Capa_1" xmlns="http://www.w3.org/2000/svg" xmlns:xlink="http://www.w3.org/1999/xlink" x="0px" y="0px"
	 viewBox="0 0 512 512" style="enable-background:new 0 0 512 512;" xml:space="preserve">
<g>
	<g>
		<polygon points="192,287.661 192,327.231 320,276.031 320,236.46 		"/>
	</g>
</g>
<g>
	<g>
		<polygon points="192,359.046 192,403.539 320,352.339 320,307.845 		"/>
	</g>
</g>
<g>
	<g>
		<path d="M192,435.354v17.57c0,4.187,1.777,8.177,4.889,10.977l49.231,44.308c2.809,2.528,6.345,3.792,9.881,3.792
			s7.072-1.264,9.881-3.792l49.231-44.308c3.111-2.8,4.889-6.791,4.889-10.977v-68.769L192,435.354z"/>
	</g>
</g>
<g>
	<g>
		<path d="M162.462,132.923v14.769c0,19.254,12.348,35.671,29.538,41.767v66.388l128-51.2V189.46
			c17.19-6.097,29.538-22.513,29.538-41.767v-14.769H162.462z"/>
	</g>
</g>
<g>
	<g>
		<path d="M393.846,0H118.154c-8.157,0-14.769,6.613-14.769,14.769v34.462c0,24.431,19.876,44.308,44.308,44.308h14.769v9.846
			h187.077v-9.846h14.769c24.431,0,44.308-19.876,44.308-44.308V14.769C408.615,6.613,402.003,0,393.846,0z"/>
	</g>
</g>
<g>
</g>
<g>
</g>
<g>
</g>
<g>
</g>
<g>
</g>
<g>
</g>
<g>
</g>
<g>
</g>
<g>
</g>
<g>
</g>
<g>
</g>
<g>
</g>
<g>
</g>
<g>
</g>
<g>
</g>
</svg>
