<?xml version="1.0" encoding="iso-8859-1"?>
<!-- Generator: Adobe Illustrator 19.0.0, SVG Export Plug-In . SVG Version: 6.00 Build 0)  -->
<svg fill="#fff" version="1.1" id="Capa_1" xmlns="http://www.w3.org/2000/svg" xmlns:xlink="http://www.w3.org/1999/xlink" x="0px" y="0px"
	 viewBox="0 0 512 512" style="enable-background:new 0 0 512 512;" xml:space="preserve">
<g>
	<g>
		<path d="M47.887,425.845c5.152,12.005,15.493,21.514,28.557,25.247l113.768,32.505c3.079,0.88,6.265,1.326,9.47,1.326h112.636
			c3.204,0,6.39-0.446,9.467-1.326l113.771-32.506c13.064-3.733,23.404-13.24,28.557-25.245H47.887z"/>
	</g>
</g>
<g>
	<g>
		<path d="M265.846,27.077h-19.692c-24.431,0-44.308,19.876-44.308,44.308v4.051v99.334c0,24.431,19.876,44.308,44.308,44.308
			h19.692c24.431,0,44.308-19.876,44.308-44.308V75.435v-4.051C310.154,46.953,290.277,27.077,265.846,27.077z"/>
	</g>
</g>
<g>
	<g>
		<path d="M467.692,268.308v-51.685c0-60.455-41.015-112.704-99.742-127.059l-28.258-6.908v92.114
			c0,40.719-33.127,73.846-73.846,73.846h-19.692c-40.719,0-73.846-33.127-73.846-73.846V82.656l-28.258,6.908
			c-58.726,14.355-99.742,66.603-99.742,127.059v51.685C19.876,268.308,0,288.184,0,312.615V352
			c0,24.431,19.876,44.308,44.308,44.308h423.385C492.124,396.308,512,376.431,512,352v-39.385
			C512,288.184,492.124,268.308,467.692,268.308z"/>
	</g>
</g>
<g>
</g>
<g>
</g>
<g>
</g>
<g>
</g>
<g>
</g>
<g>
</g>
<g>
</g>
<g>
</g>
<g>
</g>
<g>
</g>
<g>
</g>
<g>
</g>
<g>
</g>
<g>
</g>
<g>
</g>
</svg>
