<?xml version="1.0" encoding="iso-8859-1"?>
<!-- Generator: Adobe Illustrator 19.0.0, SVG Export Plug-In . SVG Version: 6.00 Build 0)  -->
<svg fill="#fff" version="1.1" id="Capa_1" xmlns="http://www.w3.org/2000/svg" xmlns:xlink="http://www.w3.org/1999/xlink" x="0px" y="0px"
	 viewBox="0 0 512 512" style="enable-background:new 0 0 512 512;" xml:space="preserve">
<g>
	<g>
		<path d="M413.538,226.462h-24.615V256h24.615c8.144,0,14.769-6.625,14.769-14.769S421.682,226.462,413.538,226.462z"/>
	</g>
</g>
<g>
	<g>
		<path d="M98.462,118.154c-8.144,0-14.769,6.625-14.769,14.769c0,8.144,6.625,14.769,14.769,14.769h103.385v-29.538H98.462z"/>
	</g>
</g>
<g>
	<g>
		<path d="M98.462,226.462c-8.144,0-14.769,6.625-14.769,14.769S90.318,256,98.462,256h260.923v-29.538H98.462z"/>
	</g>
</g>
<g>
	<g>
		<path d="M413.538,118.154H231.385v29.538h182.154c8.144,0,14.769-6.625,14.769-14.769
			C428.308,124.779,421.682,118.154,413.538,118.154z"/>
	</g>
</g>
<g>
	<g>
		<path d="M467.692,34.462H44.308C19.876,34.462,0,54.338,0,78.769v216.615c0,24.431,19.876,44.308,44.308,44.308h157.538v49.231
			h-14.769c-24.431,0-44.308,19.876-44.308,44.308v29.538c0,8.157,6.613,14.769,14.769,14.769h196.923
			c8.157,0,14.769-6.613,14.769-14.769v-29.538c0-24.431-19.876-44.308-44.308-44.308h-14.769v-49.231h157.538
			c24.431,0,44.308-19.876,44.308-44.308V78.769C512,54.338,492.124,34.462,467.692,34.462z M413.538,285.538H98.462
			c-24.431,0-44.308-19.876-44.308-44.308s19.876-44.308,44.308-44.308h315.077c24.431,0,44.308,19.876,44.308,44.308
			S437.97,285.538,413.538,285.538z M413.538,177.231H98.462c-24.431,0-44.308-19.876-44.308-44.308S74.03,88.615,98.462,88.615
			h315.077c24.431,0,44.308,19.876,44.308,44.308S437.97,177.231,413.538,177.231z"/>
	</g>
</g>
<g>
</g>
<g>
</g>
<g>
</g>
<g>
</g>
<g>
</g>
<g>
</g>
<g>
</g>
<g>
</g>
<g>
</g>
<g>
</g>
<g>
</g>
<g>
</g>
<g>
</g>
<g>
</g>
<g>
</g>
</svg>
