<?xml version="1.0" encoding="iso-8859-1"?>
<!-- Generator: Adobe Illustrator 19.0.0, SVG Export Plug-In . SVG Version: 6.00 Build 0)  -->
<svg fill="#fff" version="1.1" id="Capa_1" xmlns="http://www.w3.org/2000/svg" xmlns:xlink="http://www.w3.org/1999/xlink" x="0px" y="0px"
	 viewBox="0 0 512 512" style="enable-background:new 0 0 512 512;" xml:space="preserve">
<g>
	<g>
		<path d="M256,344.614c-8.144,0-14.769,6.625-14.769,14.769s6.625,14.769,14.769,14.769s14.769-6.625,14.769-14.769
			S264.144,344.614,256,344.614z"/>
	</g>
</g>
<g>
	<g>
		<path d="M499.022,224.671L287.329,12.978C278.961,4.609,267.834,0,256,0s-22.961,4.609-31.329,12.978L12.978,224.671
			C4.609,233.039,0,244.165,0,256c0,11.835,4.609,22.961,12.978,31.329l211.693,211.693C233.039,507.391,244.166,512,256,512
			s22.961-4.609,31.329-12.978l211.693-211.693C507.391,278.961,512,267.834,512,256C512,244.166,507.391,233.039,499.022,224.671z
			 M222.733,119.574c6.726-7.159,16.218-11.265,26.041-11.265h14.452c9.823,0,19.315,4.106,26.041,11.265
			s10.233,16.889,9.621,26.694l-7.226,115.614c-1.176,18.786-16.841,33.501-35.661,33.501c-18.821,0-34.485-14.715-35.661-33.5
			l-7.226-115.615C212.5,136.464,216.007,126.734,222.733,119.574z M256,403.691c-24.431,0-44.307-19.876-44.307-44.307
			s19.876-44.307,44.307-44.307s44.307,19.876,44.307,44.307S280.431,403.691,256,403.691z"/>
	</g>
</g>
<g>
	<g>
		<path d="M267.739,139.801c-0.685-0.73-2.183-1.952-4.513-1.952h-14.452c-2.331,0-3.828,1.223-4.513,1.952
			c-0.684,0.729-1.813,2.3-1.667,4.626l7.226,115.614c0.204,3.254,2.917,5.805,6.18,5.805c3.262,0,5.977-2.551,6.18-5.806
			l7.226-115.613C269.551,142.101,268.424,140.53,267.739,139.801z"/>
	</g>
</g>
<g>
</g>
<g>
</g>
<g>
</g>
<g>
</g>
<g>
</g>
<g>
</g>
<g>
</g>
<g>
</g>
<g>
</g>
<g>
</g>
<g>
</g>
<g>
</g>
<g>
</g>
<g>
</g>
<g>
</g>
</svg>
